<svg version="1.1" id="Layer_1" xmlns="http://www.w3.org/2000/svg" xmlns:xlink="http://www.w3.org/1999/xlink" x="0px" y="0px"
	 width="100%" viewBox="0 0 577 433" enable-background="new 0 0 577 433" xml:space="preserve">
<path fill="#121212" opacity="1.000000" stroke="none" 
	d="
M400.000000,434.000000 
	C268.166687,434.000000 136.833374,433.981415 5.500175,434.094208 
	C1.750859,434.097443 0.902929,433.249756 0.905885,429.500031 
	C1.017296,288.166779 1.017282,146.833481 0.905939,5.500271 
	C0.902985,1.751269 1.750039,0.904186 5.499854,0.906298 
	C194.833099,1.012940 384.166382,1.012923 573.499634,0.906394 
	C577.248169,0.904285 578.097107,1.749457 578.094177,5.499737 
	C577.982727,146.832947 577.982788,288.166260 578.094055,429.499512 
	C578.097046,433.247955 577.251892,434.105469 573.500183,434.096497 
	C515.833740,433.958130 458.166809,434.000000 400.000000,434.000000 
z"/>
<path fill="#F0F0F3" opacity="1.000000" stroke="none" 
	d="
M380.559570,240.766556 
	C382.845673,242.335022 383.151276,244.324509 382.992889,246.520050 
	C382.460999,253.893356 382.025940,261.203278 379.028656,268.217499 
	C376.229034,274.769043 371.753967,279.563141 366.006500,283.417664 
	C363.069336,285.387512 359.999329,285.590454 356.440063,284.037506 
	C352.815033,285.265137 352.035278,281.903961 349.757874,280.627808 
	C348.495148,279.640137 347.409241,278.970459 346.096375,278.081238 
	C345.517670,277.650513 345.193787,277.398651 344.616608,276.979858 
	C343.845306,276.487701 343.296814,276.221954 342.454163,275.841492 
	C341.988495,275.599426 341.807770,275.490051 341.377014,275.184143 
	C339.543427,273.590302 338.085693,272.022339 335.745697,271.119446 
	C335.247406,270.902374 335.050690,270.807678 334.568817,270.549866 
	C332.500427,269.095490 330.591095,268.038330 328.203369,267.154175 
	C322.779327,263.830719 318.225983,259.688995 311.979187,257.705811 
	C310.398712,256.531494 309.658447,255.259857 309.615234,253.278137 
	C310.229218,251.980820 311.151306,251.164307 312.103973,251.495667 
	C317.175079,253.259552 317.716644,250.005020 317.990265,246.378769 
	C318.092590,245.022934 318.414307,243.735580 319.187256,242.612305 
	C323.460144,236.403259 323.247803,229.445114 322.574432,222.414108 
	C322.463501,221.255554 322.091614,220.103607 322.197296,218.943054 
	C322.628632,214.205658 321.731873,210.006454 317.791962,206.844467 
	C316.879822,206.112457 316.330414,205.027740 316.563324,203.411285 
	C318.550140,201.531143 320.122650,203.011520 321.767120,203.581970 
	C327.231262,205.477432 331.493195,209.320251 336.079926,212.597336 
	C349.360016,222.085571 363.710388,229.836624 377.560852,238.397736 
	C378.550140,239.009216 379.569336,239.587692 380.559570,240.766556 
z"/>
<path fill="#EFEFF4" opacity="1.000000" stroke="none" 
	d="
M244.596069,145.779541 
	C245.990234,154.127548 245.246460,162.391022 246.837311,170.467712 
	C247.045929,171.526917 247.617462,172.209854 248.519913,173.142197 
	C249.471344,174.292023 249.662079,175.403198 249.973755,177.054962 
	C246.761688,176.443283 245.272171,179.892990 243.727615,181.284210 
	C237.171738,187.189301 229.490799,192.308548 225.877991,201.424713 
	C223.468628,201.013885 221.846817,199.552094 219.598541,198.502411 
	C219.040268,198.299042 218.816147,198.218033 218.268707,197.983337 
	C217.738907,197.710587 217.532425,197.591537 216.739807,197.069504 
	C215.966049,196.524277 215.778458,196.382004 215.315994,196.020370 
	C209.287018,190.767303 202.001083,187.847626 196.357941,182.108734 
	C195.925110,172.155334 194.757904,162.397064 195.752701,152.864395 
	C196.447952,146.201996 196.457550,139.294693 198.439926,132.802841 
	C198.991425,130.996750 201.013107,129.639603 202.662537,127.919342 
	C205.698730,126.493034 207.683594,128.242249 209.795029,129.463684 
	C216.691330,133.453094 222.676361,138.761032 229.394730,143.025314 
	C231.508820,144.367157 233.633514,145.540329 236.158447,146.748627 
	C237.854111,145.933151 240.078339,145.617630 240.633774,143.031250 
	C242.407318,143.380783 243.463379,144.382843 244.596069,145.779541 
z"/>
<path fill="#3B89F5" opacity="1.000000" stroke="none" 
	d="
M250.458801,177.518356 
	C248.776581,177.016647 248.366714,175.904495 248.666718,173.901062 
	C250.330780,170.548492 249.998245,167.452087 249.976776,164.607300 
	C249.876450,151.315292 250.111725,138.022949 249.624969,124.721001 
	C249.425919,119.281662 250.289459,113.713081 249.639664,108.189133 
	C249.404480,106.189835 250.837234,106.369125 252.114899,106.105843 
	C262.517761,103.962181 272.920013,104.122475 283.731964,105.767838 
	C284.130463,105.551056 284.534882,105.659019 284.740326,105.698975 
	C284.945770,105.738922 285.136261,105.822037 285.141724,105.925797 
	C285.266144,106.191635 285.385101,106.353722 285.628387,106.790573 
	C285.810089,107.429543 285.867462,107.793762 285.931152,108.435081 
	C286.085663,108.971756 286.233856,109.231323 286.160583,109.880722 
	C285.939148,110.270546 285.920624,110.661591 285.857788,110.846985 
	C285.366241,111.821259 285.496307,112.663734 285.676758,113.792419 
	C285.795166,114.085167 285.914032,114.384087 285.919006,114.544853 
	C286.076691,114.970406 286.229401,115.235191 286.153076,115.897156 
	C285.924042,116.294334 285.914001,116.610710 285.854492,116.757355 
	C285.724304,117.103256 285.653625,117.302528 285.689392,117.800568 
	C285.795776,118.099335 285.914978,118.390205 285.919861,118.547302 
	C286.077240,118.969925 286.229675,119.235443 286.153687,119.899368 
	C285.925262,120.297775 285.917206,120.622551 285.858459,120.774002 
	C285.202362,122.740768 285.567719,124.600174 285.674469,126.765709 
	C285.801849,127.089516 285.918671,127.382973 285.922058,127.540863 
	C286.077667,127.965614 286.229889,128.232483 286.153931,128.899719 
	C285.925781,129.300110 285.918274,129.619110 285.859222,129.767334 
	C285.543640,130.439743 285.470978,130.988037 285.691162,131.822830 
	C285.797729,132.084930 285.916443,132.383560 285.921112,132.544159 
	C286.077881,132.969772 286.229980,133.234787 286.153809,133.897247 
	C285.925568,134.294693 285.915710,134.625641 285.856201,134.780136 
	C285.235931,136.414841 285.548309,137.942978 285.665863,139.758728 
	C285.783081,140.063461 285.904999,140.380249 285.913086,140.549789 
	C286.074799,140.979614 286.228424,141.239883 286.151367,141.890411 
	C285.920654,142.280670 285.904175,142.620163 285.843018,142.778717 
	C285.392212,143.753372 285.488770,144.613617 285.667603,145.772003 
	C285.783356,146.073196 285.905273,146.384033 285.913086,146.550812 
	C286.074615,146.978409 286.228333,147.239243 286.151550,147.891327 
	C285.921021,148.282593 285.905518,148.610138 285.844574,148.762329 
	C285.715118,149.110535 285.646637,149.306549 285.681396,149.796387 
	C285.784637,150.090225 285.906586,150.391037 285.914062,150.553162 
	C286.075073,150.977295 286.228577,151.239288 286.152161,151.894501 
	C285.922211,152.287720 285.909973,152.620575 285.850525,152.776154 
	C285.210968,154.745331 285.564514,156.600433 285.671814,158.762756 
	C285.797333,159.086502 285.914978,159.383804 285.919373,159.543610 
	C286.076538,159.968842 286.229309,160.234283 286.152405,160.897583 
	C285.922760,161.295456 285.912598,161.612793 285.853088,161.759964 
	C285.545197,162.438049 285.470428,162.990677 285.688354,163.833008 
	C285.790710,164.098938 285.909729,164.392334 285.915405,164.550537 
	C286.074707,164.972275 286.228394,165.235794 286.151123,165.894363 
	C285.920197,166.289398 285.907135,166.615173 285.847168,166.766754 
	C284.176239,170.183212 287.388092,173.898483 284.457886,177.038345 
	C273.865997,173.636902 263.676819,171.576675 253.480698,177.144028 
	C252.769684,177.532257 251.585388,176.609634 250.458801,177.518356 
z"/>
<path fill="#E989C8" opacity="1.000000" stroke="none" 
	d="
M217.894745,196.828918 
	C218.084824,196.984009 218.557159,196.999664 218.791046,197.033371 
	C220.867188,199.871552 219.652893,202.651581 218.550980,205.149979 
	C213.312241,217.027985 213.256653,229.106934 217.186569,241.219574 
	C221.499939,254.514038 229.313629,265.172150 242.093033,271.559418 
	C244.842316,272.933533 245.400818,275.032166 245.412994,278.071594 
	C245.407547,280.967896 245.474167,283.454712 245.342331,285.937866 
	C245.241653,287.833923 244.792084,289.559418 242.435791,290.602661 
	C242.041534,290.780273 241.595520,290.939972 241.363678,290.988586 
	C240.922562,291.152100 240.713272,291.267059 240.190994,291.207825 
	C239.878021,291.033630 239.506332,290.956604 239.318146,290.981140 
	C238.919724,291.179779 238.709518,291.353851 238.183746,291.267090 
	C237.868179,291.006287 237.383209,290.921387 237.151245,290.838928 
	C236.496811,290.586975 236.059052,290.476501 235.331665,290.218536 
	C229.235992,290.257202 223.717056,289.505280 218.359955,286.781128 
	C210.838348,282.956299 205.741592,276.947815 201.520752,269.958435 
	C198.847153,265.531128 197.778534,260.481934 197.311539,255.525620 
	C196.760880,249.681152 196.167236,243.818344 195.935379,237.914215 
	C195.474579,226.180237 196.219086,214.480865 196.056473,202.771240 
	C195.964279,196.132706 195.035217,189.503571 196.092789,182.339951 
	C202.914566,185.600281 209.246307,190.014587 215.759491,194.744156 
	C216.191788,195.233887 216.415405,195.461899 216.833435,195.835037 
	C217.005920,196.001678 216.999390,196.000610 216.998779,195.997345 
	C217.214783,196.240295 217.450272,196.466873 217.894745,196.828918 
z"/>
<path fill="#46D363" opacity="1.000000" stroke="none" 
	d="
M380.699402,241.081940 
	C373.218323,237.731506 366.308258,233.208298 359.143372,229.230789 
	C352.166809,225.357803 345.366791,220.942856 338.795471,216.244324 
	C332.115967,211.468414 326.068481,205.505463 317.430206,203.228378 
	C314.582428,203.091232 313.310150,201.449493 312.235229,199.103638 
	C306.950989,197.799225 305.132446,193.091721 302.088196,189.328293 
	C301.477173,188.363297 301.113861,187.532410 299.896210,187.301102 
	C299.401794,186.999496 299.221558,186.713837 299.022644,186.140015 
	C298.264435,184.824554 297.968658,183.705597 298.507874,182.060333 
	C301.446716,179.153961 304.389191,180.098251 307.061737,181.513290 
	C314.331024,185.362198 322.096008,186.015137 330.170807,186.619293 
	C345.143646,187.739578 360.061737,187.097565 375.006195,186.910080 
	C379.748260,186.850586 380.972595,187.958878 380.954376,192.685974 
	C380.940918,196.185471 381.283203,199.647064 381.652985,203.538391 
	C381.891235,204.725189 383.366364,205.226654 382.003235,206.643143 
	C381.576233,207.451508 381.499329,207.884766 381.651123,208.650818 
	C383.117493,214.463943 381.500580,220.023392 382.115814,225.547501 
	C382.582001,229.733383 381.430511,233.962601 382.070435,238.588867 
	C381.490601,239.561050 381.510376,240.238586 380.855713,240.935242 
	C380.617035,241.136948 380.662079,241.076385 380.699402,241.081940 
z"/>
<path fill="#D0D0D4" opacity="1.000000" stroke="none" 
	d="
M315.700104,105.484329 
	C323.557465,104.676941 331.084930,105.153336 338.660645,105.882393 
	C342.101624,106.213539 339.851135,109.847839 342.399292,110.552704 
	C343.836670,112.901520 343.237885,115.132736 343.719055,117.499771 
	C344.083160,122.389565 346.118103,126.195213 349.225708,129.857956 
	C349.862488,130.365387 350.179840,130.703033 350.637634,131.372223 
	C351.488495,133.884064 352.444061,135.875198 355.149780,136.873322 
	C355.887726,137.237564 356.286316,137.490891 357.167114,138.293854 
	C357.802002,139.011917 357.933075,139.214127 358.222290,139.738831 
	C362.649963,145.124466 368.372681,147.607346 374.596558,149.210571 
	C376.992645,149.827789 379.599243,149.809662 381.879456,151.781769 
	C381.204224,157.749313 383.556122,163.283859 382.965546,168.961548 
	C382.784424,170.702866 383.551514,172.587326 382.114075,174.566147 
	C381.187469,178.451126 378.513336,177.068909 376.561737,176.820023 
	C369.200378,175.881256 362.177094,173.662827 355.031403,170.570038 
	C354.434906,170.387375 354.200134,170.309631 353.623810,170.099365 
	C352.844482,169.773102 352.413025,169.566345 351.674438,169.194275 
	C350.541809,168.631577 349.731171,168.203247 348.570801,167.704071 
	C336.730377,160.457504 329.017914,149.896362 322.045563,138.662643 
	C321.221985,137.335724 321.029266,135.869385 320.754944,134.120880 
	C317.914856,131.019882 317.449158,127.378777 316.721069,123.422806 
	C316.159485,117.299347 313.780426,111.696617 315.700104,105.484329 
z"/>
<path fill="#3A7CF2" opacity="1.000000" stroke="none" 
	d="
M230.855759,234.362671 
	C230.367538,233.434586 228.606308,233.024490 229.895615,231.373016 
	C230.165131,227.039017 228.641785,223.252197 228.963852,219.242218 
	C229.359970,214.310043 231.274445,212.881073 235.873230,214.556046 
	C238.201782,215.404160 240.355286,214.082932 242.264450,213.462631 
	C246.377991,212.126144 248.370407,212.285446 250.042679,216.138901 
	C251.157745,218.708359 252.561630,221.211182 252.978439,224.413879 
	C252.807739,229.167786 251.106430,233.153549 249.592392,237.202682 
	C249.157288,238.366364 248.290100,239.859726 249.886887,240.755493 
	C251.039978,241.402390 252.141769,240.528412 253.013962,239.767166 
	C256.269348,236.925873 259.531067,234.096420 262.625366,231.068207 
	C266.449707,227.325546 268.292938,227.281555 272.556335,230.545151 
	C275.865540,233.078323 278.489624,236.364700 281.918121,239.255768 
	C282.295776,239.630768 282.437988,239.782562 282.974121,240.365555 
	C283.504700,240.917053 283.641357,241.037338 283.999207,241.301666 
	C284.380493,241.508621 284.540649,241.571518 284.949615,241.687500 
	C285.366089,241.748810 285.533752,241.757080 285.951141,241.734802 
	C286.361389,241.655304 286.521912,241.606339 286.894287,241.424805 
	C287.444977,240.839096 287.483063,240.337708 287.274719,239.523300 
	C287.158966,239.045792 287.112518,238.852951 287.003845,238.366455 
	C286.795410,237.285034 286.687805,236.489014 286.342285,235.437042 
	C286.186218,234.958466 286.126801,234.766052 285.985931,234.283554 
	C285.711609,232.990234 285.281403,232.095291 284.532959,230.998245 
	C284.290497,230.300476 284.249847,229.881470 284.326782,229.144623 
	C284.138031,227.887390 286.994293,226.886154 284.038269,225.874710 
	C283.143219,225.447540 282.713379,224.976776 282.387329,224.025848 
	C282.372833,222.213593 282.879242,220.651886 281.434326,219.070419 
	C281.174744,218.524979 281.089996,218.292435 280.933044,217.685699 
	C281.067383,213.910645 282.233673,211.892303 285.754639,214.444016 
	C287.211121,215.499542 288.405060,215.522263 289.853241,214.798080 
	C293.123260,213.162903 296.649719,213.407288 300.123138,213.536682 
	C305.396271,213.733124 306.356445,214.805710 306.486877,220.189194 
	C306.511017,221.184982 306.474121,222.181946 306.632324,223.565277 
	C306.806061,224.728195 308.342163,225.211411 306.972168,226.632172 
	C306.508575,227.518814 306.498505,228.063980 306.171509,228.770035 
	C306.890594,231.822388 305.238770,234.009048 303.883728,236.674500 
	C303.617188,237.204117 303.529846,237.379776 303.222839,237.751297 
	C303.003204,237.947144 303.010895,238.007584 302.980469,238.009003 
	C302.535583,238.447067 302.499054,239.027161 302.177063,239.785080 
	C301.790863,241.221588 299.700684,240.759552 299.834106,242.683319 
	C299.506439,243.521240 299.499146,244.087631 299.152191,244.820221 
	C298.530609,246.490784 297.075806,246.694458 295.880432,247.700165 
	C295.637604,248.182846 295.541351,248.367630 295.212219,248.760818 
	C294.979309,248.969208 295.000000,249.000397 294.984222,248.990387 
	C294.766479,249.219971 294.552216,249.447998 294.158783,249.829590 
	C293.991913,249.994690 294.000000,250.000000 293.997803,249.995651 
	C293.549896,250.448654 292.878632,250.462845 292.408112,251.118423 
	C292.437195,251.422577 292.217072,251.387527 292.317352,251.436157 
	C291.586212,251.186554 291.563293,251.858948 291.160278,252.519470 
	C290.935455,252.694061 290.478363,252.873108 290.239441,252.929459 
	C289.853790,253.140060 289.707001,253.294327 289.274963,253.592209 
	C288.831512,253.792343 288.673370,253.848862 288.268921,253.958313 
	C287.796600,254.227997 287.570251,254.444412 287.159607,254.806580 
	C280.970886,258.050659 274.913910,260.314758 267.834442,260.146393 
	C262.887115,260.028717 258.556549,258.718170 253.941315,257.407135 
	C247.107834,255.465973 241.994034,251.546509 237.903870,246.145432 
	C236.298508,244.025558 233.873184,242.473053 233.092438,239.356720 
	C233.100754,237.187134 232.647339,235.586700 230.855759,234.362671 
z"/>
<path fill="#59DD6D" opacity="1.000000" stroke="none" 
	d="
M381.834595,203.477905 
	C379.862183,200.284149 379.907074,196.309708 379.997498,192.335175 
	C380.077362,188.825470 378.655090,188.206100 375.068695,188.319168 
	C361.786469,188.737915 348.486298,189.908661 335.184326,188.289963 
	C331.414276,187.831161 327.557556,188.104263 323.741913,187.995300 
	C318.184845,187.836594 313.001984,186.285034 308.107910,183.694885 
	C305.492340,182.310638 302.949738,180.563507 299.396057,181.959930 
	C298.134583,181.358124 298.597382,180.386185 298.316101,179.259857 
	C298.180939,178.957916 298.039001,178.656662 298.049072,178.490463 
	C297.912109,178.053528 297.765076,177.782776 297.838257,177.105743 
	C298.058502,176.699463 298.051208,176.327011 298.124512,176.155792 
	C298.885986,171.276291 298.203979,166.541656 298.344818,161.426071 
	C298.219391,161.026886 298.065308,160.665314 298.063965,160.468811 
	C297.850830,160.014557 297.639038,159.756836 297.744934,159.112518 
	C298.062653,158.725937 298.062134,158.345200 298.136597,158.169983 
	C298.707245,156.902130 298.467407,155.754532 298.334442,154.307312 
	C298.206116,153.990112 298.058167,153.654297 298.059601,153.470825 
	C297.913361,153.021851 297.765656,152.756317 297.838684,152.092026 
	C298.059387,151.693268 298.043457,151.354736 298.113678,151.200516 
	C298.542633,150.367386 298.486084,149.569992 299.101776,148.651138 
	C302.570984,147.601547 305.562561,149.142151 308.689209,149.300262 
	C313.998505,149.568756 318.895355,148.871094 324.122009,147.061401 
	C324.704346,147.090546 324.931702,147.127655 325.473267,147.290161 
	C326.940674,148.115967 327.133118,149.526886 328.256653,150.602219 
	C328.654480,150.897141 328.810730,151.017700 329.195923,151.323502 
	C329.573639,151.635910 329.722443,151.763077 330.308777,152.281250 
	C330.895752,152.801117 331.045227,152.929993 331.666443,153.436035 
	C332.297913,153.944687 332.457581,154.076157 332.843994,154.425995 
	C333.345001,154.970551 333.574585,155.325958 333.885742,156.004456 
	C334.321777,158.005127 334.740082,159.626968 337.157684,160.026566 
	C337.644348,160.260773 337.830933,160.370544 338.261749,160.692566 
	C339.177643,161.697220 339.743958,162.629868 341.257996,162.811691 
	C344.515717,164.274338 346.672485,166.844101 349.974609,168.307037 
	C350.716919,168.702728 351.124817,168.966949 351.815430,169.473969 
	C359.160522,173.913788 366.919769,176.074097 374.919952,177.530869 
	C377.181549,177.942703 379.534088,178.059998 381.682281,179.866776 
	C381.899994,187.786209 381.895813,195.393799 381.834595,203.477905 
z"/>
<path fill="#4782F4" opacity="1.000000" stroke="none" 
	d="
M306.804626,223.490402 
	C304.292175,214.452515 304.293182,214.472504 294.247223,214.980667 
	C292.721985,215.057816 291.363831,215.256485 290.154724,216.332474 
	C288.019806,218.232346 285.894867,219.428131 284.823273,215.338638 
	C284.625885,214.585312 283.991516,214.111404 283.379517,214.309921 
	C281.216522,215.011566 282.379669,217.164200 281.533264,218.935944 
	C279.141968,218.339081 278.405518,216.195587 277.847443,214.168091 
	C276.170227,208.074905 273.267822,202.417480 271.667908,196.304764 
	C271.152435,194.335236 270.463287,192.206955 268.028717,192.177032 
	C265.878113,192.150574 265.061432,194.126221 264.434021,195.836151 
	C262.038086,202.366241 259.344086,208.786102 257.300140,215.448044 
	C256.245911,218.884064 255.752426,222.630066 252.342728,225.049408 
	C251.642349,221.640854 249.116455,219.142944 248.641983,215.792206 
	C248.400101,214.084045 246.390320,213.266815 244.726746,213.286423 
	C242.437302,213.313431 243.219635,215.377594 242.974060,216.707367 
	C242.858566,217.332809 242.946289,218.044815 241.809708,218.422043 
	C240.439514,217.674271 241.482025,215.689133 240.447159,214.706024 
	C240.118088,214.743622 239.621170,214.682541 239.552994,214.825684 
	C238.319473,217.415329 237.149078,220.296188 234.912827,215.485031 
	C234.475662,214.544510 233.928452,214.221664 233.011612,214.579437 
	C231.584564,215.136276 230.144165,215.845306 230.115814,217.606018 
	C230.073349,220.241470 230.018265,222.916306 230.417603,225.505096 
	C230.673645,227.164963 231.234100,228.698578 230.165558,230.641235 
	C225.949158,223.230301 227.841537,215.562347 230.193390,207.802689 
	C231.855774,202.317856 234.636124,197.199677 238.280304,193.227890 
	C243.050079,188.029266 249.308807,183.943405 256.371490,182.251892 
	C268.457275,179.357346 280.568634,180.056595 290.690765,187.694092 
	C300.947174,195.432938 307.791382,205.717209 306.914490,219.528915 
	C306.840668,220.691452 306.882996,221.861374 306.804626,223.490402 
z"/>
<path fill="#F2C308" opacity="1.000000" stroke="none" 
	d="
M349.694885,279.368530 
	C351.845245,280.858612 354.017731,281.949249 355.702515,284.056824 
	C356.247101,285.717041 358.278076,285.714386 358.860413,287.461426 
	C357.066193,287.997467 355.328613,288.516602 353.226044,289.229858 
	C349.445740,289.262756 346.179077,290.453308 342.418579,290.655090 
	C342.047089,290.778870 341.661407,290.920929 341.455994,290.914124 
	C341.000397,291.129150 340.750183,291.350952 340.124451,291.240295 
	C339.748901,290.907806 339.340698,290.921997 339.149109,290.851288 
	C338.803955,290.711487 338.650452,290.642426 338.266846,290.677490 
	C338.036804,290.781555 337.660706,290.922668 337.460083,290.913269 
	C337.005249,291.063263 336.751099,291.222687 336.117950,291.139404 
	C335.738953,290.896759 335.497467,290.931549 335.376495,290.915771 
	C335.006989,291.106079 334.758453,291.312134 334.132019,291.215363 
	C333.392944,290.931763 333.031738,290.951019 332.400360,290.995544 
	C319.215668,290.926758 306.300110,291.258911 292.938965,290.811462 
	C290.580963,289.587891 290.650208,287.669769 290.623657,285.869293 
	C290.535645,279.900085 290.612213,273.929565 290.587830,267.959991 
	C290.574554,264.706177 291.861847,262.154358 294.398102,260.252655 
	C296.915161,258.365387 299.463715,256.547394 301.835602,254.450912 
	C305.737549,251.002090 308.449432,254.249832 311.653381,256.707397 
	C318.261932,258.531708 323.326569,262.243134 328.803711,265.983307 
	C330.322052,268.226074 332.850830,268.302887 334.804413,269.832336 
	C335.071655,270.025116 334.974335,270.029633 334.967072,269.981445 
	C337.596008,270.863342 339.126160,273.388275 341.885498,274.743225 
	C342.164368,274.943512 342.028625,274.981598 342.013397,274.912781 
	C342.692902,275.919159 343.940582,275.268066 345.187561,275.891724 
	C345.549622,276.033905 345.907928,276.242188 345.925507,276.351074 
	C346.345947,278.293610 347.950165,278.722870 349.694885,279.368530 
z"/>
<path fill="#79E57D" opacity="1.000000" stroke="none" 
	d="
M342.546570,111.296288 
	C343.225647,105.332085 343.354187,105.800423 349.313019,106.636726 
	C360.020752,108.139511 367.961731,113.980049 374.295929,121.961143 
	C378.099884,126.754112 381.277924,132.307251 381.038147,139.053650 
	C380.947693,141.599243 381.762238,144.177002 382.148621,147.153198 
	C380.284729,150.169601 377.779694,149.213745 375.422729,148.735092 
	C369.686829,147.570297 364.830322,144.469986 359.557373,141.350616 
	C358.531738,140.750397 358.009888,140.168777 357.221497,139.304932 
	C356.937714,139.041122 357.000336,139.008942 356.982635,139.039368 
	C356.619446,138.543503 356.351807,137.959763 355.567383,137.386963 
	C353.098450,136.391281 351.525543,134.922363 350.583374,132.399963 
	C350.178650,130.116852 348.282349,129.224335 347.279999,127.293785 
	C346.184143,125.269394 345.293945,123.538719 344.667816,121.294922 
	C343.759125,117.853325 343.173187,114.727974 342.546570,111.296288 
z"/>
<path fill="#7AE67E" opacity="1.000000" stroke="none" 
	d="
M236.588654,146.507782 
	C233.722473,146.729874 231.675751,146.276154 229.002701,144.419083 
	C220.739487,138.678268 213.242752,131.588303 203.339172,127.751381 
	C201.407135,122.161682 206.362976,120.108734 209.076614,117.020996 
	C214.925278,110.366020 223.210876,108.253181 231.339905,106.012962 
	C235.887711,104.759659 237.030991,105.842377 237.019806,110.357574 
	C236.996201,119.880104 237.269104,129.403015 237.322830,138.926331 
	C237.336105,141.279526 236.975922,143.634827 236.588654,146.507782 
z"/>
<path fill="#74E57A" opacity="1.000000" stroke="none" 
	d="
M326.228912,147.095154 
	C319.842987,151.232758 312.752625,150.612366 305.808228,151.028152 
	C303.407959,151.171860 302.077393,148.867889 299.436920,149.022552 
	C298.443115,148.684692 298.543640,148.063080 298.323364,147.263138 
	C298.203949,147.002747 298.054413,146.631363 298.035492,146.432083 
	C297.883698,145.988297 297.750824,145.743790 297.817291,145.132553 
	C298.016663,144.765823 298.052887,144.361160 298.126923,144.171997 
	C298.811554,142.391083 298.380463,140.733414 298.505005,138.760910 
	C298.338959,137.483719 298.499664,136.552338 298.322815,135.304749 
	C298.183289,134.985809 298.035522,134.639725 298.031799,134.451599 
	C297.891357,134.008423 297.754639,133.753342 297.823242,133.115753 
	C298.028564,132.733276 298.033325,132.360092 298.106079,132.188263 
	C298.636383,131.229874 298.502655,130.379669 298.309265,129.250427 
	C298.172821,128.963135 298.029022,128.636032 298.029846,128.457367 
	C297.829498,128.018707 297.628387,127.758698 297.729004,127.108734 
	C298.030792,126.718788 298.026917,126.361649 298.097809,126.197739 
	C298.750824,124.891441 298.472931,123.684464 298.300293,122.226227 
	C298.166199,121.957001 298.024567,121.636002 298.026733,121.460587 
	C297.891937,121.022278 297.754913,120.759384 297.822662,120.101753 
	C298.027405,119.707016 298.016876,119.361259 298.085693,119.202576 
	C298.753448,117.877327 298.494995,116.651817 298.258057,115.166565 
	C298.113678,114.895424 297.985535,114.636833 298.003143,114.493614 
	C297.886475,114.066391 297.752197,113.782394 297.819458,113.072464 
	C298.021027,112.646538 297.982544,112.368172 298.044556,112.242096 
	C298.930817,110.403290 298.273712,108.558784 298.808228,106.488708 
	C299.036926,106.177475 299.510040,106.039627 299.751221,105.989273 
	C300.998291,105.187286 302.139801,105.588242 303.611816,105.731216 
	C306.656189,104.999641 309.282898,106.638313 312.384766,106.085892 
	C315.288818,108.361923 314.232788,111.394341 314.652191,114.072212 
	C314.984406,116.193222 315.360107,118.298073 316.029114,120.752556 
	C316.767670,125.402763 317.897003,129.521805 319.808472,133.779877 
	C321.285736,138.696732 325.023468,142.080826 326.228912,147.095154 
z"/>
<path fill="#D880B9" opacity="1.000000" stroke="none" 
	d="
M244.525360,278.009857 
	C244.270401,275.248566 243.478622,273.898651 240.370758,272.366180 
	C229.062378,266.790009 221.889603,257.027313 217.126007,245.634140 
	C213.635391,237.285583 212.344742,228.350220 213.088577,219.311310 
	C213.496475,214.354752 215.420471,209.679855 217.237793,205.028320 
	C218.125916,202.755127 218.422348,200.250748 219.005768,197.459045 
	C221.682327,197.347046 223.482132,199.038635 225.372375,201.256912 
	C221.973389,212.289337 220.301773,223.019272 223.880203,233.959381 
	C227.371094,244.631882 233.912689,253.088440 243.007736,259.624664 
	C243.610291,260.057709 245.096313,258.474426 245.019684,260.868042 
	C246.881165,266.807404 247.517334,272.368408 244.525360,278.009857 
z"/>
<path fill="#E7E5E9" opacity="1.000000" stroke="none" 
	d="
M289.502686,291.485321 
	C275.606934,292.719086 261.880035,292.355377 248.025803,291.382141 
	C245.473389,289.646790 244.968536,287.438751 244.939377,284.748474 
	C244.901428,281.246155 245.533798,277.805054 245.538910,273.889038 
	C246.619354,271.703186 247.999786,272.287933 249.438202,272.871094 
	C260.571259,277.384888 271.819550,278.132172 283.257202,273.984222 
	C285.384338,273.212769 287.465759,271.864380 290.234192,273.005798 
	C290.942413,279.265930 292.116821,285.253143 289.502686,291.485321 
z"/>
<path fill="#DFDFE3" opacity="1.000000" stroke="none" 
	d="
M311.690765,198.844360 
	C314.583679,198.930634 314.032990,202.634338 316.864319,202.889648 
	C317.110382,203.528702 317.029938,203.999298 317.216583,204.160309 
	C327.390533,212.937607 323.533447,224.694870 323.855286,235.545273 
	C323.883057,236.482056 323.503937,237.552719 322.996918,238.362885 
	C320.511322,242.334961 319.386261,246.747223 318.271118,251.233185 
	C317.674683,253.632538 316.387421,256.353088 313.340210,252.937592 
	C312.385071,251.867004 311.227661,252.356216 309.807678,252.989044 
	C307.400543,253.090820 305.929749,251.905502 304.338104,250.310974 
	C305.438599,246.075378 307.259155,242.235764 309.265472,238.820663 
	C313.285980,231.977051 312.547180,224.787811 312.926514,217.549194 
	C313.195557,212.415604 312.460602,207.534653 310.827972,202.700012 
	C310.431274,201.525299 309.136383,199.957520 311.690765,198.844360 
z"/>
<path fill="#D1CFD3" opacity="1.000000" stroke="none" 
	d="
M290.589600,272.340759 
	C278.233185,279.673096 265.258453,278.318329 252.220505,276.713562 
	C249.588058,276.389557 249.471207,272.807495 246.329926,272.949402 
	C245.059387,269.395386 245.619812,265.823975 245.724640,261.794250 
	C248.607941,260.181183 250.454025,262.838013 252.551865,263.566284 
	C264.742584,267.798279 276.376862,266.458954 288.484711,262.107849 
	C292.787506,264.722137 290.408722,268.574127 290.589600,272.340759 
z"/>
<path fill="#7EBCC1" opacity="1.000000" stroke="none" 
	d="
M244.886475,145.647537 
	C243.384293,145.468018 241.817429,145.132111 241.111908,143.138824 
	C241.013992,135.463684 241.144608,128.114899 240.293900,120.741676 
	C239.843689,116.839653 240.809647,112.781815 241.043945,108.788910 
	C241.120758,107.480026 241.749557,107.263397 242.897766,107.060822 
	C245.479065,106.605415 244.385803,110.076881 246.562363,110.344963 
	C247.053635,110.405464 245.419617,110.727951 245.208466,111.126015 
	C244.581833,112.307404 243.716995,113.415031 244.229736,115.010666 
	C246.285370,121.407852 244.930817,127.835060 244.343994,134.273636 
	C244.161057,136.280853 244.039276,138.885620 245.110504,140.276367 
	C246.716125,142.360855 245.325516,143.643387 244.886475,145.647537 
z"/>
<path fill="#DABD45" opacity="1.000000" stroke="none" 
	d="
M290.402466,273.272705 
	C289.995026,269.484802 291.142029,266.036835 289.168762,262.465454 
	C293.160767,257.358215 299.113037,254.754822 303.827271,250.103577 
	C306.108215,250.351303 307.512726,251.609238 309.203461,252.955246 
	C310.216156,254.178513 310.971039,255.265564 311.887390,256.631836 
	C308.937225,256.299164 301.910248,258.122498 298.223083,259.575165 
	C293.198395,261.554810 291.656311,264.973053 291.887329,270.067139 
	C292.173889,276.386566 291.972900,282.728149 291.995728,289.528473 
	C292.356964,290.356720 292.488525,290.787964 292.203369,291.555664 
	C291.258026,292.040192 290.559601,290.459564 289.586121,291.858765 
	C291.201691,285.949371 290.313293,279.825867 290.402466,273.272705 
z"/>
<path fill="#EEFCF0" opacity="1.000000" stroke="none" 
	d="
M382.220154,180.045395 
	C373.462891,178.774796 365.001648,177.454376 357.136780,173.803543 
	C355.199554,172.904297 353.117188,172.273056 351.347900,170.438385 
	C351.243378,169.557922 351.726746,169.285217 352.598938,169.119278 
	C355.355743,168.581314 357.386597,169.763916 359.521667,170.699448 
	C366.527039,173.769058 373.832428,175.558228 381.768372,175.269318 
	C382.350769,175.460190 384.841461,174.349319 383.157318,176.143051 
	C381.882629,177.500717 382.080017,178.550095 382.220154,180.045395 
z"/>
<path fill="#ECF9EE" opacity="1.000000" stroke="none" 
	d="
M358.662720,139.650757 
	C364.597015,141.625107 368.925262,146.214691 374.993164,147.213501 
	C377.100372,147.560364 379.117432,148.387161 381.716980,147.700928 
	C381.806213,149.023254 381.840851,150.426559 382.431824,151.876099 
	C373.526581,150.972427 365.479950,148.520599 358.687561,142.848419 
	C357.912506,142.201202 357.170044,141.594345 357.038696,140.166550 
	C357.462708,139.596573 357.891388,139.510330 358.662720,139.650757 
z"/>
<path fill="#F8D759" opacity="1.000000" stroke="none" 
	d="
M292.345856,291.909851 
	C291.981903,291.422852 291.989227,291.015472 292.002716,290.302460 
	C303.366791,290.026123 314.724792,290.037476 326.082458,290.103363 
	C327.874512,290.113770 329.665070,290.370758 331.793274,290.767273 
	C326.767059,293.508423 321.122864,291.599274 315.628052,292.064301 
	C307.993774,292.710358 300.353638,292.245880 292.345856,291.909851 
z"/>
<path fill="#EFFBEF" opacity="1.000000" stroke="none" 
	d="
M315.240295,122.368614 
	C312.820312,117.308708 312.821747,112.173012 312.796997,106.599724 
	C313.646301,105.782700 314.464966,105.411827 315.625549,105.100922 
	C316.641815,111.186020 317.316162,117.211151 317.984833,123.674377 
	C316.561859,124.594063 316.014862,123.589592 315.240295,122.368614 
z"/>
<path fill="#E5B3D3" opacity="1.000000" stroke="none" 
	d="
M245.662811,261.246124 
	C245.877960,264.879517 245.924667,268.441437 245.968292,272.461182 
	C245.947281,276.746368 246.050095,280.579529 245.866211,284.398926 
	C245.755676,286.694946 246.315353,288.620575 247.831299,290.720154 
	C245.630737,290.547791 244.483109,291.387421 245.007339,293.921478 
	C243.252441,293.275299 244.765274,291.013794 242.420135,290.851257 
	C245.451141,287.317566 243.567657,282.954132 244.037109,278.551910 
	C245.963623,272.943481 244.452362,267.549225 245.100464,261.766907 
	C245.134125,261.239044 245.494370,261.174652 245.662811,261.246124 
z"/>
<path fill="#7DA7D7" opacity="1.000000" stroke="none" 
	d="
M284.206573,177.309357 
	C286.327942,174.067337 283.673492,170.480499 285.566742,167.194122 
	C286.221802,169.422501 285.105347,172.303177 287.788635,174.329559 
	C288.083496,174.552216 289.523926,177.298645 287.890167,177.411804 
	C286.830292,177.485199 285.475098,180.179459 284.206573,177.309357 
z"/>
<path fill="#B2CBC9" opacity="1.000000" stroke="none" 
	d="
M294.926422,108.345398 
	C294.917297,110.388031 294.917297,112.017502 294.917297,113.969215 
	C293.613525,112.027031 291.779266,111.367287 290.072327,110.515190 
	C292.040802,106.681007 293.367462,105.977173 294.926422,108.345398 
z"/>
<path fill="#000000" opacity="1.000000" stroke="none" 
	d="
M342.316254,111.015610 
	C345.284973,113.326393 343.923798,117.384789 345.971741,120.464417 
	C343.864319,121.705833 343.672394,119.950287 343.094543,118.329514 
	C340.818787,116.055344 343.220001,113.227463 342.128540,111.099808 
	C342.515045,111.037155 342.349396,110.999046 342.316254,111.015610 
z"/>
<path fill="#A1DBAD" opacity="1.000000" stroke="none" 
	d="
M298.181671,161.414368 
	C299.595093,165.750107 298.845581,170.539505 298.430969,175.647888 
	C298.073242,171.257401 297.513519,166.531891 298.181671,161.414368 
z"/>
<path fill="#97BEC0" opacity="1.000000" stroke="none" 
	d="
M294.910400,179.189926 
	C294.739868,181.471878 293.287018,181.113831 292.420776,180.608063 
	C290.304596,179.372467 291.274506,177.258438 291.351044,175.291092 
	C291.075226,178.112244 295.675140,175.637573 294.910400,179.189926 
z"/>
<path fill="#F8D759" opacity="1.000000" stroke="none" 
	d="
M342.418030,290.840759 
	C345.196075,289.090881 348.556396,288.702026 352.457031,289.287537 
	C349.500183,289.893005 346.420227,292.275574 342.418030,290.840759 
z"/>
<path fill="#A1DBAD" opacity="1.000000" stroke="none" 
	d="
M298.136230,179.320648 
	C298.436890,179.755920 298.692841,180.553925 298.995178,181.675049 
	C298.993866,183.027496 298.946167,184.056824 298.951233,185.469009 
	C295.405121,184.283035 296.418091,182.032059 298.136230,179.320648 
z"/>
<path fill="#4782F4" opacity="1.000000" stroke="none" 
	d="
M230.572067,234.669098 
	C233.568176,234.245834 234.063156,236.014496 233.323883,238.742645 
	C231.616364,238.063126 232.420273,235.727051 230.572067,234.669098 
z"/>
<path fill="#7DA7D7" opacity="1.000000" stroke="none" 
	d="
M285.853851,158.648193 
	C284.542419,157.317368 284.928101,155.414841 285.567474,153.220795 
	C285.830841,154.691116 285.870605,156.450500 285.853851,158.648193 
z"/>
<path fill="#ACE3AE" opacity="1.000000" stroke="none" 
	d="
M298.644592,106.276810 
	C298.913452,107.976540 298.790009,109.775612 298.386566,111.845345 
	C298.155121,110.202728 298.203705,108.289436 298.644592,106.276810 
z"/>
<path fill="#FFFFFF" opacity="1.000000" stroke="none" 
	d="
M303.865234,105.587280 
	C302.925629,105.941650 301.858185,105.978699 300.391571,105.977333 
	C300.402496,105.443611 297.761383,103.363770 300.669159,104.373634 
	C301.678680,104.724236 302.780579,104.778946 303.865234,105.587280 
z"/>
<path fill="#7DA7D7" opacity="1.000000" stroke="none" 
	d="
M285.857849,126.650558 
	C284.547791,125.316818 284.935394,123.411560 285.575256,121.214752 
	C285.837769,122.687500 285.875824,124.449547 285.857849,126.650558 
z"/>
<path fill="#A1DBAD" opacity="1.000000" stroke="none" 
	d="
M298.558289,137.800751 
	C298.767365,139.777481 298.712891,141.576675 298.429688,143.679352 
	C298.148682,142.286118 298.096375,140.589371 297.943787,138.481720 
	C297.993896,137.921585 298.144287,137.772385 298.558289,137.800751 
z"/>
<path fill="#7DA7D7" opacity="1.000000" stroke="none" 
	d="
M285.840912,139.638229 
	C284.663330,138.624146 284.902344,137.059418 285.578125,135.204590 
	C285.830719,136.360748 285.864716,137.786880 285.840912,139.638229 
z"/>
<path fill="#ACE3AE" opacity="1.000000" stroke="none" 
	d="
M298.121704,122.363495 
	C299.271973,123.037941 299.138763,124.277061 298.397736,125.799194 
	C298.138184,124.945885 298.107697,123.857933 298.121704,122.363495 
z"/>
<path fill="#ACE3AE" opacity="1.000000" stroke="none" 
	d="
M298.868652,137.658463 
	C298.821838,137.978287 298.331635,138.015213 298.087555,138.042999 
	C295.685730,137.039810 298.970123,136.553864 298.134583,135.318115 
	C298.929352,135.613861 298.968903,136.461777 298.868652,137.658463 
z"/>
<path fill="#A1DBAD" opacity="1.000000" stroke="none" 
	d="
M298.166779,154.389740 
	C299.201752,155.063370 299.097137,156.267654 298.418488,157.755173 
	C298.183167,156.926285 298.155304,155.857819 298.166779,154.389740 
z"/>
<path fill="#ACE3AE" opacity="1.000000" stroke="none" 
	d="
M298.074219,115.310333 
	C299.380951,115.965424 299.159668,117.247505 298.396057,118.808167 
	C298.114563,117.937675 298.074646,116.831459 298.074219,115.310333 
z"/>
<path fill="#A1DBAD" opacity="1.000000" stroke="none" 
	d="
M298.154358,147.404022 
	C298.454498,147.488754 298.705048,147.974762 299.003632,148.739044 
	C298.903900,149.563644 298.756134,150.109955 298.396149,150.851273 
	C298.157501,149.965973 298.131104,148.885635 298.154358,147.404022 
z"/>
<path fill="#59DD6D" opacity="1.000000" stroke="none" 
	d="
M299.673828,187.598465 
	C300.569611,187.086929 301.448914,187.143143 301.968964,188.601730 
	C301.296509,188.598480 300.531067,188.255127 299.673828,187.598465 
z"/>
<path fill="#F8D759" opacity="1.000000" stroke="none" 
	d="
M333.781799,291.257996 
	C334.003662,290.871246 334.253174,290.830048 334.879089,290.844421 
	C334.869019,291.647766 335.391541,293.175201 333.851837,292.924255 
	C332.696045,292.735901 333.519196,292.067230 333.781799,291.257996 
z"/>
<path fill="#F8D759" opacity="1.000000" stroke="none" 
	d="
M339.840027,291.286133 
	C339.998810,290.868591 340.248749,290.829346 340.874634,290.848724 
	C341.031616,291.830475 340.812592,292.753662 340.593567,293.676819 
	C339.611359,293.256683 340.085236,292.357239 339.840027,291.286133 
z"/>
<path fill="#E5B3D3" opacity="1.000000" stroke="none" 
	d="
M237.817871,291.341156 
	C238.078400,290.992676 238.288605,290.979065 238.814377,290.985596 
	C238.939423,291.828857 239.362366,293.195404 237.827225,292.945770 
	C236.721466,292.765961 237.404526,292.128571 237.817871,291.341156 
z"/>
<path fill="#7DA7D7" opacity="1.000000" stroke="none" 
	d="
M285.851227,113.704300 
	C285.002411,113.305794 284.931732,112.417297 285.595795,111.240128 
	C285.832428,111.796066 285.869843,112.559753 285.851227,113.704300 
z"/>
<path fill="#ACE3AE" opacity="1.000000" stroke="none" 
	d="
M298.128632,129.343689 
	C299.043579,129.724915 299.102356,130.619766 298.392334,131.811005 
	C298.147339,131.252365 298.115906,130.488312 298.128632,129.343689 
z"/>
<path fill="#7DA7D7" opacity="1.000000" stroke="none" 
	d="
M285.840576,145.683243 
	C284.978699,145.275269 284.887634,144.370117 285.580109,143.157410 
	C285.820526,143.722626 285.859192,144.507950 285.840576,145.683243 
z"/>
<path fill="#4782F4" opacity="1.000000" stroke="none" 
	d="
M306.262360,228.847702 
	C306.115753,228.448257 306.239899,227.929764 306.558777,227.223175 
	C306.680054,227.599594 306.606598,228.164124 306.262360,228.847702 
z"/>
<path fill="#4B77D5" opacity="1.000000" stroke="none" 
	d="
M291.201294,252.700134 
	C291.239044,252.247589 291.542603,251.801102 292.131897,251.419693 
	C292.100800,251.891922 291.783966,252.299057 291.201294,252.700134 
z"/>
<path fill="#4B77D5" opacity="1.000000" stroke="none" 
	d="
M292.691040,251.319580 
	C292.319336,250.676788 292.679932,250.255508 293.680359,250.022858 
	C293.645355,250.399734 293.295135,250.808151 292.691040,251.319580 
z"/>
<path fill="#537ACE" opacity="1.000000" stroke="none" 
	d="
M299.240601,244.887299 
	C299.097107,244.487885 299.221497,243.945999 299.553772,243.213013 
	C299.677216,243.596222 299.592834,244.170517 299.240601,244.887299 
z"/>
<path fill="#7DA7D7" opacity="1.000000" stroke="none" 
	d="
M285.853363,131.725037 
	C285.203430,131.579529 285.001678,130.992432 285.610718,130.095795 
	C285.836426,130.398743 285.872711,130.881943 285.853363,131.725037 
z"/>
<path fill="#59DD6D" opacity="1.000000" stroke="none" 
	d="
M381.019806,241.286713 
	C380.865845,240.574417 381.114685,240.011887 381.586792,239.237518 
	C381.680878,239.829269 381.551727,240.632889 381.019806,241.286713 
z"/>
<path fill="#4782F4" opacity="1.000000" stroke="none" 
	d="
M302.263123,239.866486 
	C302.158234,239.454178 302.321289,238.906143 302.717224,238.184265 
	C302.810394,238.583878 302.670715,239.157318 302.263123,239.866486 
z"/>
<path fill="#ACE3AE" opacity="1.000000" stroke="none" 
	d="
M297.670258,126.810730 
	C298.071289,126.978516 298.111755,127.238251 298.091431,127.888351 
	C297.390503,127.997314 296.750366,127.715919 296.110229,127.434525 
	C296.510071,127.257248 296.909882,127.079964 297.670258,126.810730 
z"/>
<path fill="#59DD6D" opacity="1.000000" stroke="none" 
	d="
M381.828308,208.644730 
	C381.189941,208.529419 380.945862,208.019196 381.594299,207.195694 
	C381.811371,207.469803 381.846863,207.897919 381.828308,208.644730 
z"/>
<path fill="#7DA7D7" opacity="1.000000" stroke="none" 
	d="
M285.846924,163.735321 
	C285.198059,163.586533 284.988953,162.994949 285.603638,162.089813 
	C285.830109,162.395325 285.866638,162.883499 285.846924,163.735321 
z"/>
<path fill="#E5B3D3" opacity="1.000000" stroke="none" 
	d="
M235.153793,290.292542 
	C235.553833,290.143555 236.052399,290.267181 236.735138,290.573639 
	C236.363632,290.692657 235.807983,290.628876 235.153793,290.292542 
z"/>
<path fill="#A1DBAD" opacity="1.000000" stroke="none" 
	d="
M297.693542,158.809052 
	C298.106293,158.983398 298.149902,159.240875 298.128052,159.885315 
	C297.410645,159.991791 296.469025,160.354416 296.159271,159.415848 
	C296.145477,159.374023 296.918091,159.072647 297.693542,158.809052 
z"/>
<path fill="#E5B3D3" opacity="1.000000" stroke="none" 
	d="
M239.960175,291.317505 
	C240.086472,291.018951 240.294907,291.004303 240.817596,291.013397 
	C240.922256,291.521820 240.845184,292.262390 239.960175,291.317505 
z"/>
<path fill="#A1DBAD" opacity="1.000000" stroke="none" 
	d="
M297.747925,176.837036 
	C298.113312,176.969925 298.168091,177.240402 298.140991,177.917572 
	C297.581299,177.999054 296.630524,177.891724 297.747925,176.837036 
z"/>
<path fill="#7DA7D7" opacity="1.000000" stroke="none" 
	d="
M285.800262,106.831032 
	C285.498474,106.920181 285.315338,106.712433 285.175262,106.235825 
	C285.504761,106.065178 285.738281,106.254234 285.800262,106.831032 
z"/>
<path fill="#4B77D5" opacity="1.000000" stroke="none" 
	d="
M289.230957,253.749039 
	C289.115936,253.460129 289.312927,253.251038 289.790588,253.047180 
	C289.951416,253.331009 289.775330,253.589813 289.230957,253.749039 
z"/>
<path fill="#4B77D5" opacity="1.000000" stroke="none" 
	d="
M287.222748,254.893127 
	C287.085693,254.630936 287.283081,254.377136 287.795258,254.101273 
	C287.838379,254.285355 287.654083,254.559464 287.222748,254.893127 
z"/>
<path fill="#7DA7D7" opacity="1.000000" stroke="none" 
	d="
M286.245300,134.166122 
	C285.889313,134.030060 285.853058,133.765411 285.871277,133.102783 
	C286.448242,133.000656 287.384613,133.097977 286.245300,134.166122 
z"/>
<path fill="#F8D759" opacity="1.000000" stroke="none" 
	d="
M335.866516,291.201935 
	C335.992157,290.856567 336.245392,290.816345 336.879028,290.839996 
	C336.964539,291.371094 336.881775,292.283295 335.866516,291.201935 
z"/>
<path fill="#7DA7D7" opacity="1.000000" stroke="none" 
	d="
M286.257324,110.150162 
	C285.905609,110.011185 285.872101,109.751831 285.888031,109.102325 
	C286.460052,109.001328 287.373413,109.101219 286.257324,110.150162 
z"/>
<path fill="#7DA7D7" opacity="1.000000" stroke="none" 
	d="
M285.843018,117.800468 
	C285.697815,117.782944 285.599884,117.466553 285.648438,117.027077 
	C285.826752,117.103195 285.858521,117.302399 285.843018,117.800468 
z"/>
<path fill="#F8D759" opacity="1.000000" stroke="none" 
	d="
M338.267029,290.829529 
	C338.215393,290.450653 338.462677,290.366547 338.868073,290.654907 
	C338.957489,290.780579 338.497223,290.877502 338.267029,290.829529 
z"/>
<path fill="#ACE3AE" opacity="1.000000" stroke="none" 
	d="
M297.729553,112.811462 
	C298.072144,112.930176 298.123230,113.213821 298.097534,113.923927 
	C297.581360,113.996361 296.638245,113.855957 297.729553,112.811462 
z"/>
<path fill="#7DA7D7" opacity="1.000000" stroke="none" 
	d="
M286.245178,129.169205 
	C285.888763,129.033600 285.851715,128.767075 285.870056,128.099640 
	C286.445221,127.998924 287.384796,128.098801 286.245178,129.169205 
z"/>
<path fill="#7DA7D7" opacity="1.000000" stroke="none" 
	d="
M286.244202,116.166046 
	C285.887726,116.029900 285.851410,115.765465 285.869568,115.103325 
	C286.447174,115.000786 287.385162,115.096558 286.244202,116.166046 
z"/>
<path fill="#7DA7D7" opacity="1.000000" stroke="none" 
	d="
M284.937195,105.546875 
	C284.945770,105.738922 284.518219,105.733833 284.324341,105.642441 
	C284.304871,105.112938 284.541321,104.927109 284.937195,105.546875 
z"/>
<path fill="#ACE3AE" opacity="1.000000" stroke="none" 
	d="
M297.729248,119.846573 
	C298.068970,119.969734 298.110504,120.232445 298.090454,120.890167 
	C297.547028,120.982224 296.691437,120.851280 297.729248,119.846573 
z"/>
<path fill="#7DA7D7" opacity="1.000000" stroke="none" 
	d="
M286.244812,120.167984 
	C285.888702,120.032578 285.852173,119.767380 285.870239,119.103294 
	C286.447601,119.000519 287.384827,119.097946 286.244812,120.167984 
z"/>
<path fill="#7DA7D7" opacity="1.000000" stroke="none" 
	d="
M285.832336,149.796265 
	C285.688782,149.779312 285.592926,149.468399 285.640350,149.036011 
	C285.815765,149.110458 285.847870,149.306381 285.832336,149.796265 
z"/>
<path fill="#7DA7D7" opacity="1.000000" stroke="none" 
	d="
M286.241608,166.163544 
	C285.884216,166.026291 285.848206,165.763168 285.866638,165.104401 
	C286.445984,165.001526 287.386169,165.093704 286.241608,166.163544 
z"/>
<path fill="#7DA7D7" opacity="1.000000" stroke="none" 
	d="
M286.243103,161.166870 
	C285.886292,161.030441 285.849854,160.765427 285.868591,160.101913 
	C286.446014,160.000275 287.385590,160.097168 286.243103,161.166870 
z"/>
<path fill="#A1DBAD" opacity="1.000000" stroke="none" 
	d="
M297.750488,151.832031 
	C298.107422,151.958618 298.155457,152.223984 298.132263,152.888367 
	C297.560547,152.986847 296.626709,152.890228 297.750488,151.832031 
z"/>
<path fill="#7DA7D7" opacity="1.000000" stroke="none" 
	d="
M286.243134,152.162415 
	C285.886688,152.026016 285.851135,151.764297 285.868530,151.108932 
	C286.450012,151.003128 287.384918,151.093384 286.243134,152.162415 
z"/>
<path fill="#ACE3AE" opacity="1.000000" stroke="none" 
	d="
M297.728149,132.861877 
	C298.067047,132.988098 298.105499,133.242905 298.086029,133.880585 
	C297.536621,133.976547 296.694519,133.854980 297.728149,132.861877 
z"/>
<path fill="#7DA7D7" opacity="1.000000" stroke="none" 
	d="
M286.242645,148.159485 
	C285.885864,148.022095 285.850708,147.761597 285.868225,147.109344 
	C286.450043,147.003677 287.385101,147.091751 286.242645,148.159485 
z"/>
<path fill="#A1DBAD" opacity="1.000000" stroke="none" 
	d="
M297.713196,144.879211 
	C298.048767,145.010101 298.080872,145.254395 298.064758,145.865738 
	C297.498383,145.973984 296.695190,145.854599 297.713196,144.879211 
z"/>
<path fill="#7DA7D7" opacity="1.000000" stroke="none" 
	d="
M286.242432,142.158447 
	C285.885773,142.020767 285.850861,141.760880 285.868561,141.110153 
	C286.451050,141.004196 287.384949,141.091797 286.242432,142.158447 
z"/>
<path fill="#4782F4" opacity="1.000000" stroke="none" 
	d="
M303.224365,237.883789 
	C303.069550,237.685074 303.197418,237.457626 303.545654,237.146606 
	C303.867035,237.373886 303.780701,237.637878 303.224365,237.883789 
z"/>
<path fill="#4B77D5" opacity="1.000000" stroke="none" 
	d="
M295.215027,248.905380 
	C295.027191,248.677429 295.159973,248.431503 295.555756,248.114746 
	C295.894318,248.364746 295.799957,248.645920 295.215027,248.905380 
z"/>
<path fill="#4B77D5" opacity="1.000000" stroke="none" 
	d="
M294.234680,249.916122 
	C294.076202,249.664566 294.254761,249.397461 294.748047,249.086884 
	C294.804779,249.266113 294.641083,249.551834 294.234680,249.916122 
z"/>
<path fill="#000000" opacity="1.000000" stroke="none" 
	d="
M342.410767,274.610168 
	C338.636932,275.451263 337.745758,271.715698 335.085846,270.278748 
	C338.587799,269.498749 339.928284,273.118042 342.410767,274.610168 
z"/>
<path fill="#000000" opacity="1.000000" stroke="none" 
	d="
M334.965637,269.697205 
	C332.730682,269.581268 330.610931,268.727478 329.132141,266.426453 
	C331.078735,267.165131 332.969177,268.267212 334.965637,269.697205 
z"/>
<path fill="#000000" opacity="1.000000" stroke="none" 
	d="
M349.734619,279.127319 
	C347.565308,280.318390 346.260529,278.922607 345.582336,276.723511 
	C347.107941,277.273010 348.272827,278.086029 349.734619,279.127319 
z"/>
<path fill="#000000" opacity="1.000000" stroke="none" 
	d="
M345.247681,275.733368 
	C344.301575,277.678650 343.426422,275.467316 342.155518,275.282410 
	C343.197937,273.952820 343.963928,275.232880 345.247681,275.733368 
z"/>
<path fill="#D880B9" opacity="1.000000" stroke="none" 
	d="
M216.899292,195.774872 
	C216.685760,195.887451 216.424438,195.693832 216.106033,195.202576 
	C216.257614,195.172256 216.525131,195.360153 216.899292,195.774872 
z"/>
<path fill="#D880B9" opacity="1.000000" stroke="none" 
	d="
M217.956879,196.766144 
	C217.804932,196.801743 217.525055,196.619476 217.121674,196.215637 
	C217.275085,196.178818 217.552017,196.363556 217.956879,196.766144 
z"/>
<path fill="#59DD6D" opacity="1.000000" stroke="none" 
	d="
M376.278564,192.509644 
	C375.408264,192.878860 374.780914,192.859482 374.542023,192.105759 
	C374.477112,191.901001 374.716858,191.409378 374.913452,191.345078 
	C375.751831,191.070938 376.500244,191.110062 376.278564,192.509644 
z"/>
<path fill="#050505" opacity="1.000000" stroke="none" 
	d="
M326.260132,147.559738 
	C324.384735,143.321198 319.981659,140.401459 320.070435,134.990829 
	C323.250702,134.350739 322.932892,137.823410 324.030304,139.546646 
	C330.952606,150.416840 338.848389,160.310165 349.609711,167.839600 
	C349.606110,167.794006 349.749664,167.884338 349.617126,168.182281 
	C345.663696,168.947586 345.100525,163.997421 341.506622,163.986664 
	C340.009888,163.359924 338.852966,162.776031 338.332458,161.119446 
	C338.264801,160.806320 338.178070,160.734512 338.122650,160.744385 
	C335.846954,160.041977 333.521729,159.443619 333.215607,156.161987 
	C333.062897,155.499756 332.914825,155.226700 332.346710,155.006134 
	C331.836609,154.772354 331.583466,154.563843 331.182343,154.152374 
	C331.018433,153.968735 331.000000,154.000702 331.015564,153.990768 
	C330.785553,153.773636 330.552704,153.553040 330.176727,153.135620 
	C330.020905,152.952209 329.999512,152.999741 330.023499,152.989594 
	C329.789612,152.776749 329.549774,152.554642 329.174377,152.121735 
	C329.020874,151.930344 329.009857,151.996521 329.038391,151.978897 
	C327.904236,151.024094 326.977631,149.908051 326.333740,148.200897 
	C326.225586,147.905884 326.333008,147.667999 326.260132,147.559738 
z"/>
<path fill="#ECF9EE" opacity="1.000000" stroke="none" 
	d="
M342.827209,118.178795 
	C343.839264,118.928329 344.598419,119.890373 345.680298,120.851952 
	C346.703644,122.658920 347.404297,124.466362 348.137207,126.643242 
	C348.589539,128.122925 349.531860,129.025040 349.324829,130.642532 
	C344.539154,128.045181 343.343811,123.329796 342.827209,118.178795 
z"/>
<path fill="#000000" opacity="1.000000" stroke="none" 
	d="
M319.954010,134.420746 
	C319.657349,134.783173 319.842651,134.674850 319.868195,134.662384 
	C316.840057,131.323730 316.249298,126.980522 315.038239,122.501534 
	C316.237854,122.132835 316.634857,123.254486 317.697998,123.981079 
	C318.094696,127.574310 320.875397,130.427444 319.954010,134.420746 
z"/>
<path fill="#ECF9EE" opacity="1.000000" stroke="none" 
	d="
M350.889130,132.233063 
	C352.274200,134.117172 353.227142,136.011276 355.682617,136.616150 
	C355.842010,137.063187 355.792755,137.292435 355.465393,137.737076 
	C352.011719,137.588608 350.489258,135.617401 350.020050,132.253738 
	C350.271484,131.882385 350.514954,131.887161 350.889130,132.233063 
z"/>
<path fill="#000000" opacity="1.000000" stroke="none" 
	d="
M350.959961,132.196777 
	C350.878784,132.423553 350.737732,132.272949 350.312347,131.999985 
	C350.056091,131.526489 349.920349,131.258255 349.391418,131.018829 
	C348.769928,129.881302 348.377777,128.797867 348.077576,127.363556 
	C350.038361,128.070312 350.587250,129.877823 350.959961,132.196777 
z"/>
<path fill="#000000" opacity="1.000000" stroke="none" 
	d="
M349.730225,168.371857 
	C349.378693,168.037781 349.375580,168.197388 349.388306,168.237762 
	C349.482269,167.927109 349.449707,167.397812 349.666595,167.259399 
	C350.249847,166.887177 350.756805,167.235825 351.505493,167.878326 
	C352.155212,168.224640 352.418365,168.455612 352.795776,168.944244 
	C352.944763,169.162384 352.952820,169.095139 352.920959,169.106567 
	C352.909546,169.931702 352.341949,170.069336 351.412903,170.176788 
	C350.767670,169.711716 350.424713,169.208832 349.730225,168.371857 
z"/>
<path fill="#000000" opacity="1.000000" stroke="none" 
	d="
M355.449341,138.023926 
	C355.257294,137.643173 355.327240,137.333908 355.644226,136.929291 
	C356.452881,137.394379 357.014526,137.954803 357.270538,138.792526 
	C356.547058,138.744995 356.129211,138.420197 355.449341,138.023926 
z"/>
<path fill="#000000" opacity="1.000000" stroke="none" 
	d="
M358.787018,139.459991 
	C358.552643,139.826981 358.124542,139.898743 357.377533,139.887848 
	C357.058655,139.805176 357.019897,139.419312 356.978821,139.230225 
	C357.572449,137.972458 358.056519,138.921356 358.787018,139.459991 
z"/>
<path fill="#EEFCF0" opacity="1.000000" stroke="none" 
	d="
M352.847534,168.904297 
	C352.640778,168.962540 352.336761,168.762711 351.945038,168.298096 
	C352.154968,168.237610 352.452637,168.441895 352.847534,168.904297 
z"/>
<path fill="#161616" opacity="1.000000" stroke="none" 
	d="
M252.048218,225.388412 
	C255.586395,215.192963 259.284149,205.456589 262.713470,195.626572 
	C263.396820,193.667816 264.337982,192.290573 265.974304,191.191238 
	C268.238129,189.670319 269.441498,189.972107 270.763123,192.461227 
	C274.469818,199.442368 277.729980,206.622375 278.995117,214.474472 
	C279.289490,216.301498 281.553650,216.711456 281.271149,218.985962 
	C281.373444,219.336029 281.401276,219.356857 281.415100,219.367233 
	C283.434113,219.522629 282.729492,221.153152 283.014465,222.629135 
	C283.070465,223.554169 283.114441,224.097839 283.261292,224.894318 
	C285.181427,225.481735 284.932526,226.937103 285.048279,228.598358 
	C285.185699,229.547394 285.299194,230.105667 285.753693,230.924011 
	C285.946838,232.013870 286.216187,232.754532 286.771057,233.708282 
	C287.006409,234.149292 287.054718,234.356171 287.181854,234.871857 
	C287.641479,235.920639 287.236267,236.750885 287.745056,237.700623 
	C287.963043,237.900009 288.095184,238.362457 288.144775,238.597748 
	C288.022949,240.072586 289.053894,241.490799 287.372192,242.741470 
	C287.101715,242.936829 286.671509,242.990005 286.456482,243.017273 
	C285.798126,242.798126 285.592682,242.406662 285.552490,241.914444 
	C285.363220,242.117966 285.414551,242.403366 285.048798,242.841995 
	C284.790222,243.049164 284.358337,243.028580 284.143219,243.007019 
	C283.787811,242.821869 283.647491,242.658295 283.252380,242.295776 
	C282.997559,242.096848 282.993134,241.987793 282.938599,241.989441 
	C282.766449,241.834717 282.648895,241.678314 282.295898,241.346725 
	C278.718292,238.026352 275.440033,234.809433 272.013550,231.758987 
	C269.319855,229.360901 266.956238,227.393509 263.652344,231.806671 
	C260.752502,235.680084 256.614136,238.669479 252.824966,241.810684 
	C251.480103,242.925568 249.460205,243.647629 247.758408,242.331909 
	C246.299866,241.204269 247.067673,239.781219 247.639343,238.314423 
	C249.245789,234.192657 250.637238,229.987106 252.048218,225.388412 
z"/>
<path fill="#4782F4" opacity="1.000000" stroke="none" 
	d="
M285.333191,228.778107 
	C284.425537,227.960007 283.778870,226.930923 283.248230,225.524475 
	C285.040222,225.218964 286.814575,224.456451 288.664368,225.862747 
	C287.568665,226.827881 286.581421,227.697495 285.333191,228.778107 
z"/>
<path fill="#4782F4" opacity="1.000000" stroke="none" 
	d="
M283.284119,222.759079 
	C282.392212,222.020905 281.757874,221.031342 281.276245,219.709686 
	C284.320312,218.944672 284.221222,220.530304 283.284119,222.759079 
z"/>
<path fill="#6C8CC6" opacity="1.000000" stroke="none" 
	d="
M286.974792,233.676300 
	C286.468597,232.956161 283.397949,233.454422 285.704590,231.134247 
	C287.044312,231.664001 286.957550,232.561401 286.974792,233.676300 
z"/>
<path fill="#7599DE" opacity="1.000000" stroke="none" 
	d="
M287.424591,242.867279 
	C288.890747,241.777679 286.899078,240.239456 287.847351,238.897125 
	C289.321808,240.298508 289.563934,241.664154 287.424591,242.867279 
z"/>
<path fill="#6C8CC6" opacity="1.000000" stroke="none" 
	d="
M287.963318,237.604675 
	C285.533264,238.011307 287.272461,236.511658 287.194458,235.460205 
	C287.494965,235.890198 287.729309,236.599777 287.963318,237.604675 
z"/>
<path fill="#7599DE" opacity="1.000000" stroke="none" 
	d="
M285.153198,243.097534 
	C284.988342,242.378891 284.637299,241.473053 285.582947,241.164017 
	C285.631012,241.148300 285.932190,241.907272 286.178528,242.675034 
	C285.999725,243.078323 285.757965,243.112106 285.153198,243.097534 
z"/>
<path fill="#4782F4" opacity="1.000000" stroke="none" 
	d="
M285.542908,219.472839 
	C285.570343,219.521301 285.515472,219.424362 285.542908,219.472839 
z"/>
<path fill="#7599DE" opacity="1.000000" stroke="none" 
	d="
M282.169617,241.334290 
	C282.384338,241.153839 282.622925,241.287964 282.830109,241.782486 
	C282.650604,241.865234 282.448853,241.700562 282.169617,241.334290 
z"/>
<path fill="#7599DE" opacity="1.000000" stroke="none" 
	d="
M283.106293,242.289124 
	C283.344727,242.093872 283.611237,242.238983 283.862610,242.758820 
	C283.640656,242.887833 283.402954,242.719818 283.106293,242.289124 
z"/>
<path fill="#74E57A" opacity="1.000000" stroke="none" 
	d="
M333.012573,156.277466 
	C334.112030,157.957306 335.829956,159.285400 338.041473,160.405411 
	C334.710693,161.474258 332.770172,160.428497 333.012573,156.277466 
z"/>
<path fill="#74E57A" opacity="1.000000" stroke="none" 
	d="
M326.159027,148.274292 
	C327.383972,148.838104 328.606262,149.718719 329.016113,151.629044 
	C326.929993,151.881790 325.960114,150.756210 326.159027,148.274292 
z"/>
<path fill="#74E57A" opacity="1.000000" stroke="none" 
	d="
M338.190796,161.197021 
	C340.731964,160.035522 339.551849,162.926361 340.982056,163.663940 
	C339.469604,164.017868 337.902161,163.932465 338.190796,161.197021 
z"/>
<path fill="#74E57A" opacity="1.000000" stroke="none" 
	d="
M331.135315,154.197037 
	C331.308624,154.142136 331.598785,154.315536 331.997314,154.725250 
	C331.821167,154.782822 331.536713,154.604080 331.135315,154.197037 
z"/>
<path fill="#74E57A" opacity="1.000000" stroke="none" 
	d="
M330.125427,153.179550 
	C330.305817,153.130524 330.590759,153.308838 330.953369,153.733994 
	C330.764038,153.789520 330.496979,153.598206 330.125427,153.179550 
z"/>
<path fill="#74E57A" opacity="1.000000" stroke="none" 
	d="
M329.126770,152.162323 
	C329.308533,152.113922 329.596222,152.297516 329.965668,152.730255 
	C329.775879,152.784393 329.504272,152.589355 329.126770,152.162323 
z"/>
</svg>