<svg xmlns="http://www.w3.org/2000/svg" viewBox="0 0 576 512"><path fill="#FF0000" d="M549.655 124.083c-6.281-23.65-24.783-42.262-48.397-48.568C456.087 64 288 64 288 64s-168.087 0-213.258 11.515c-23.613 6.306-42.115 24.918-48.396 48.568C16 168.457 16 256 16 256s0 87.543 10.346 131.917c6.281 23.65 24.783 42.262 48.396 48.568C119.913 448 288 448 288 448s168.087 0 213.258-11.515c23.613-6.306 42.115-24.918 48.396-48.568C560 343.543 560 256 560 256s0-87.543-10.345-131.917zM232 334V178l142 78-142 78z"/></svg>