<svg xmlns="http://www.w3.org/2000/svg" viewBox="0 0 496 512"><path fill="#1DB954" d="M248 8C111.033 8 0 119.043 0 256s111.033 248 248 248 248-111.033 248-248S384.967 8 248 8zM360.485 372.676c-4.797 7.953-15.186 10.514-23.14 5.717-63.31-38.176-143.215-46.728-237.955-25.31-8.985 2.03-18.008-3.664-20.038-12.646-2.03-8.982 3.663-18.007 12.646-20.037 105.438-23.83 197.09-13.374 270.535 29.366 7.954 4.797 10.514 15.187 5.717 23.14zm31.32-65.905c-5.973 9.885-18.768 13.062-28.655 7.09-72.64-43.923-183.447-56.636-269.28-30.679-10.276 3.132-21.33-2.61-24.46-12.884-3.13-10.274 2.61-21.33 12.884-24.46 99.905-30.425 224.63-16.176 308.736 36.672 9.886 5.973 13.063 18.767 7.09 28.66zm.362-66.94c-87.06-52.14-231.21-56.795-316.71-30.77-12.023 3.717-24.964-2.897-28.68-14.92-3.717-12.02 2.896-24.963 14.92-28.68 100.86-31.176 260.59-25.52 362.2 35.805 11.146 6.675 14.776 21.102 8.1 32.25-6.675 11.146-21.103 14.776-32.25 8.1z"/></svg>