<svg xmlns="http://www.w3.org/2000/svg" viewBox="0 0 448 512" fill="#E1306C">
  <path d="M224.1 141c-63.6 0-114.9 51.3-114.9 114.9S160.5 370.9 224.1 370.9 339 319.6 339 255.9 287.7 141 224.1 141zm0 186.6c-39.6 0-71.7-32.1-71.7-71.7s32.1-71.7 71.7-71.7 71.7 32.1 71.7 71.7-32.1 71.7-71.7 71.7zm146.4-194.3c0 14.9-12.1 27-27 27s-27-12.1-27-27 12.1-27 27-27 27 12.1 27 27zm76.1 27.2c-.9-19.6-5.1-37-18.3-50.2C411 85.1 393.6 80.9 374 80c-20.2-1.2-81-1.2-101.2 0-19.6.9-37 5.1-50.2 18.3-13.2 13.2-17.4 30.6-18.3 50.2-1.2 20.2-1.2 81 0 101.2.9 19.6 5.1 37 18.3 50.2 13.2 13.2 30.6 17.4 50.2 18.3 20.2 1.2 81 1.2 101.2 0 19.6-.9 37-5.1 50.2-18.3 13.2-13.2 17.4-30.6 18.3-50.2 1.2-20.2 1.2-81 0-101.2zM398.8 388c-7.8 19.5-22.8 34.4-42.3 42.3-29.3 11.7-98.8 9-132.5 9s-103.2 2.6-132.5-9c-19.5-7.8-34.4-22.8-42.3-42.3-11.7-29.3-9-98.8-9-132.5s-2.6-103.2 9-132.5c7.8-19.5 22.8-34.4 42.3-42.3C123.2 53.2 192.7 56 226.4 56s103.2-2.6 132.5 9c19.5 7.8 34.4 22.8 42.3 42.3 11.7 29.3 9 98.8 9 132.5s2.6 103.2-9 132.5z"/>
</svg>